<mxfile host="app.diagrams.net" modified="2023-10-18T12:00:00.000Z" agent="Mozilla/5.0" version="27.0.6">
  <diagram name="Page-1" id="J3KCKedbq1iABVvFpygW">
    <mxGraphModel dx="1422" dy="794" grid="1" gridSize="10" guides="1" tooltips="1" connect="1" arrows="1" fold="1" page="1" pageScale="1" pageWidth="850" pageHeight="1100">
      <root>
        <mxCell id="0" />
        <mxCell id="1" parent="0" />
  
        <mxCell id="admin" value="Администратор" style="swimlane;whiteSpace=wrap;html=1;" vertex="1" parent="1">
          <mxGeometry x="100" y="100" width="100" height="600" as="geometry" />
        </mxCell>
        
        <mxCell id="ui" value="Интерфейс" style="swimlane;whiteSpace=wrap;html=1;" vertex="1" parent="1">
          <mxGeometry x="250" y="100" width="100" height="600" as="geometry" />
        </mxCell>
        
        <mxCell id="controller" value="Контроллер" style="swimlane;whiteSpace=wrap;html=1;" vertex="1" parent="1">
          <mxGeometry x="400" y="100" width="100" height="600" as="geometry" />
        </mxCell>
        
        <mxCell id="db" value="База данных" style="swimlane;whiteSpace=wrap;html=1;" vertex="1" parent="1">
          <mxGeometry x="550" y="100" width="100" height="600" as="geometry" />
        </mxCell>
   
        <mxCell id="c1" value="Добавить нового абитуриента" style="edgeStyle=none;html=1;rounded=0;exitX=1;exitY=0.1;exitDx=0;exitDy=0;entryX=0;entryY=0.1;entryDx=0;entryDy=0;" edge="1" parent="1" source="admin" target="ui">
          <mxGeometry relative="1" as="geometry" />
        </mxCell>
        
        <mxCell id="c2" value="Показать форму ввода" style="edgeStyle=none;html=1;rounded=0;exitX=1;exitY=0.15;exitDx=0;exitDy=0;entryX=0;entryY=0.15;entryDx=0;entryDy=0;" edge="1" parent="1" source="ui" target="admin">
          <mxGeometry relative="1" as="geometry" />
        </mxCell>
        
        <mxCell id="c3" value="Ввести данные абитуриента" style="edgeStyle=none;html=1;rounded=0;exitX=1;exitY=0.2;exitDx=0;exitDy=0;entryX=0;entryY=0.2;entryDx=0;entryDy=0;" edge="1" parent="1" source="admin" target="ui">
          <mxGeometry relative="1" as="geometry" />
        </mxCell>
        
        <mxCell id="c4" value="Запрос на создание" style="edgeStyle=none;html=1;rounded=0;exitX=1;exitY=0.25;exitDx=0;exitDy=0;entryX=0;entryY=0.25;entryDx=0;entryDy=0;" edge="1" parent="1" source="ui" target="controller">
          <mxGeometry relative="1" as="geometry" />
        </mxCell>
        
        <mxCell id="c5" value="INSERT запрос" style="edgeStyle=none;html=1;rounded=0;exitX=1;exitY=0.3;exitDx=0;exitDy=0;entryX=0;entryY=0.3;entryDx=0;entryDy=0;" edge="1" parent="1" source="controller" target="db">
          <mxGeometry relative="1" as="geometry" />
        </mxCell>
        
        <mxCell id="c6" value="Подтверждение создания" style="edgeStyle=none;html=1;rounded=0;exitX=1;exitY=0.35;exitDx=0;exitDy=0;entryX=0;entryY=0.35;entryDx=0;entryDy=0;" edge="1" parent="1" source="db" target="controller">
          <mxGeometry relative="1" as="geometry" />
        </mxCell>
        
        <mxCell id="c7" value="Результат операции" style="edgeStyle=none;html=1;rounded=0;exitX=1;exitY=0.4;exitDx=0;exitDy=0;entryX=0;entryY=0.4;entryDx=0;entryDy=0;" edge="1" parent="1" source="controller" target="ui">
          <mxGeometry relative="1" as="geometry" />
        </mxCell>
        
        <mxCell id="c8" value="Показать статус" style="edgeStyle=none;html=1;rounded=0;exitX=1;exitY=0.45;exitDx=0;exitDy=0;entryX=0;entryY=0.45;entryDx=0;entryDy=0;" edge="1" parent="1" source="ui" target="admin">
          <mxGeometry relative="1" as="geometry" />
        </mxCell>
        
        <mxCell id="r1" value="Запрос списка абитуриентов" style="edgeStyle=none;html=1;rounded=0;exitX=1;exitY=0.5;exitDx=0;exitDy=0;entryX=0;entryY=0.5;entryDx=0;entryDy=0;" edge="1" parent="1" source="admin" target="ui">
          <mxGeometry relative="1" as="geometry" />
        </mxCell>
        
        <mxCell id="r2" value="Запрос данных" style="edgeStyle=none;html=1;rounded=0;exitX=1;exitY=0.55;exitDx=0;exitDy=0;entryX=0;entryY=0.55;entryDx=0;entryDy=0;" edge="1" parent="1" source="ui" target="controller">
          <mxGeometry relative="1" as="geometry" />
        </mxCell>
        
        <mxCell id="r3" value="SELECT запрос" style="edgeStyle=none;html=1;rounded=0;exitX=1;exitY=0.6;exitDx=0;exitDy=0;entryX=0;entryY=0.6;entryDx=0;entryDy=0;" edge="1" parent="1" source="controller" target="db">
          <mxGeometry relative="1" as="geometry" />
        </mxCell>
        
        <mxCell id="r4" value="Данные абитуриентов" style="edgeStyle=none;html=1;rounded=0;exitX=1;exitY=0.65;exitDx=0;exitDy=0;entryX=0;entryY=0.65;entryDx=0;entryDy=0;" edge="1" parent="1" source="db" target="controller">
          <mxGeometry relative="1" as="geometry" />
        </mxCell>
        
        <mxCell id="r5" value="Форматированные данные" style="edgeStyle=none;html=1;rounded=0;exitX=1;exitY=0.7;exitDx=0;exitDy=0;entryX=0;entryY=0.7;entryDx=0;entryDy=0;" edge="1" parent="1" source="controller" target="ui">
          <mxGeometry relative="1" as="geometry" />
        </mxCell>
        
        <mxCell id="r6" value="Отобразить список" style="edgeStyle=none;html=1;rounded=0;exitX=1;exitY=0.75;exitDx=0;exitDy=0;entryX=0;entryY=0.75;entryDx=0;entryDy=0;" edge="1" parent="1" source="ui" target="admin">
          <mxGeometry relative="1" as="geometry" />
        </mxCell>
        
        <mxCell id="u1" value="Запрос на редактирование" style="edgeStyle=none;html=1;rounded=0;exitX=1;exitY=0.8;exitDx=0;exitDy=0;entryX=0;entryY=0.8;entryDx=0;entryDy=0;" edge="1" parent="1" source="admin" target="ui">
          <mxGeometry relative="1" as="geometry" />
        </mxCell>
        
        <mxCell id="u2" value="Запрос на обновление" style="edgeStyle=none;html=1;rounded=0;exitX=1;exitY=0.85;exitDx=0;exitDy=0;entryX=0;entryY=0.85;entryDx=0;entryDy=0;" edge="1" parent="1" source="ui" target="controller">
          <mxGeometry relative="1" as="geometry" />
        </mxCell>
        
        <mxCell id="u3" value="UPDATE запрос" style="edgeStyle=none;html=1;rounded=0;exitX=1;exitY=0.9;exitDx=0;exitDy=0;entryX=0;entryY=0.9;entryDx=0;entryDy=0;" edge="1" parent="1" source="controller" target="db">
          <mxGeometry relative="1" as="geometry" />
        </mxCell>
        
        <mxCell id="u4" value="Подтверждение обновления" style="edgeStyle=none;html=1;rounded=0;exitX=1;exitY=0.95;exitDx=0;exitDy=0;entryX=0;entryY=0.95;entryDx=0;entryDy=0;" edge="1" parent="1" source="db" target="controller">
          <mxGeometry relative="1" as="geometry" />
        </mxCell>
        
        <mxCell id="u5" value="Результат обновления" style="edgeStyle=none;html=1;rounded=0;exitX=1;exitY=1;exitDx=0;exitDy=0;entryX=0;entryY=1;entryDx=0;entryDy=0;" edge="1" parent="1" source="controller" target="ui">
          <mxGeometry relative="1" as="geometry" />
        </mxCell>

        <mxCell id="a1" value="" style="shape=partialRectangle;connectable=0;fillColor=none;top=0;left=0;bottom=0;right=0;strokeColor=#000000;" vertex="1" parent="1">
          <mxGeometry x="250" y="150" width="100" height="500" as="geometry" />
        </mxCell>
        
        <mxCell id="a2" value="" style="shape=partialRectangle;connectable=0;fillColor=none;top
